<svg width="39" height="39" viewBox="0 0 39 39" fill="none" xmlns="http://www.w3.org/2000/svg">
<path d="M37.5863 18.1838H33.3938C32.8088 11.4075 27.3975 5.99625 20.6213 5.41125V1.21875C20.6213 0.53625 20.085 0 19.4025 0C18.72 0 18.1838 0.53625 18.1838 1.21875V5.41125C11.4075 5.99625 5.99625 11.4075 5.41125 18.1838H1.21875C0.53625 18.1838 0 18.72 0 19.4025C0 20.085 0.53625 20.6213 1.21875 20.6213H5.41125C5.99625 27.3975 11.4075 32.8088 18.1838 33.3938V37.5863C18.1838 38.2688 18.72 38.805 19.4025 38.805C20.085 38.805 20.6213 38.2688 20.6213 37.5863V33.3938C27.3975 32.8088 32.8088 27.3975 33.3938 20.6213H37.5863C38.2688 20.6213 38.805 20.085 38.805 19.4025C38.805 18.72 38.2688 18.1838 37.5863 18.1838ZM30.9562 20.6213C30.3712 26.0325 26.0813 30.3712 20.6213 30.9562C20.2313 31.005 19.7925 31.005 19.4025 31.005C19.0125 31.005 18.5738 31.005 18.1838 30.9562C12.7725 30.3712 8.43375 26.0813 7.84875 20.6213C7.8 20.2313 7.8 19.7925 7.8 19.4025C7.8 19.0125 7.8 18.5738 7.84875 18.1838C8.43375 12.7725 12.7238 8.43375 18.1838 7.84875C18.5738 7.8 19.0125 7.8 19.4025 7.8C19.7925 7.8 20.2313 7.8 20.6213 7.84875C26.0325 8.43375 30.3712 12.7725 30.9562 18.1838C31.005 18.5738 31.005 18.9638 31.005 19.4025C31.005 19.7925 31.005 20.2313 30.9562 20.6213Z" fill="#00A582"/>
<path d="M19.4025 24.6188C22.2833 24.6188 24.6187 22.2834 24.6187 19.4025C24.6187 16.5217 22.2833 14.1863 19.4025 14.1863C16.5216 14.1863 14.1862 16.5217 14.1862 19.4025C14.1862 22.2834 16.5216 24.6188 19.4025 24.6188Z" fill="#00A582"/>
</svg>
