<svg width="108" height="22" viewBox="0 0 108 22" fill="none" xmlns="http://www.w3.org/2000/svg">
<g style="mix-blend-mode:luminosity" opacity="0.8">
<path d="M10.9099 0H4.55937V0.529212H6.5948V11.032C6.5948 14.1666 5.69921 15.0622 3.74519 15.0622C3.01244 15.1436 2.3611 14.6144 2.27968 13.8816C2.27968 13.8002 2.27968 13.7188 2.27968 13.6374C2.27968 12.4976 2.19827 11.8055 1.18055 11.8055C0.162835 11.8055 0 12.8639 0 13.1896C0 14.6551 0.651338 15.7542 3.54165 15.7542C7.00188 15.7542 8.83377 14.6144 8.83377 10.7471V0.529212H10.9506L10.9099 0Z" fill="#503629"/>
<path d="M11.7241 13.271C11.3984 13.271 11.0727 13.3931 10.8285 13.6374C10.5842 13.8816 10.4621 14.2073 10.4621 14.533C10.4621 14.8586 10.5842 15.1843 10.8285 15.3878C11.0727 15.6321 11.3984 15.7542 11.7241 15.7542C12.0497 15.7542 12.3754 15.6321 12.6197 15.3878C12.8639 15.1436 12.986 14.8586 12.986 14.533C12.986 13.8409 12.4568 13.3117 11.7648 13.3117H11.7241" fill="#503629"/>
<path d="M25.85 13.2709C25.1986 13.2709 24.6287 13.8001 24.588 14.4515V14.4922C24.588 14.8179 24.7508 15.1435 24.9951 15.3471C25.2394 15.5913 25.565 15.7135 25.8907 15.7135C26.2164 15.7135 26.542 15.5913 26.7863 15.3471C27.0305 15.1435 27.1527 14.8179 27.1527 14.4922C27.1527 14.1665 27.0305 13.8409 26.7863 13.5966C26.542 13.3523 26.2571 13.2302 25.9314 13.2302" fill="#503629"/>
<path d="M21.4534 0H15.1843V0.529212H17.0162V12.4976C17.0569 12.9861 17.0162 13.4746 16.8534 13.9631C16.6905 14.2887 16.4056 14.5737 16.0799 14.6551C15.7135 14.7772 15.3064 14.8587 14.8994 14.8587V15.3472H21.5349V14.8587C21.0871 14.8587 20.68 14.8179 20.2729 14.6958C19.9065 14.5737 19.6216 14.3294 19.4994 14.0038C19.3773 13.6781 19.2959 13.3524 19.3366 13.0268V8.87448H21.0056C25.8093 8.87448 27.1527 6.96118 27.1527 4.39653C27.1527 1.83189 26.2978 0 21.4534 0ZM20.5579 8.26385H19.2959V0.610629H20.4357C24.1402 0.610629 25.0358 2.11685 25.0358 4.55937C25.0358 7.00188 23.5703 8.34527 20.6393 8.34527" fill="#503629"/>
<path d="M46.9778 13.9223C46.8556 13.5966 46.8149 13.2302 46.8556 12.8639V0.529153H48.5247V0.0406494H44.576L39.7723 11.724C39.7723 11.7647 39.7316 11.8054 39.6909 11.8054C39.6502 11.8054 39.6095 11.7647 39.5688 11.724C39.5688 11.724 34.6023 0.162775 34.5616 0.0406494H30.1651V0.529153H32.0784V13.5152C32.0784 13.8002 31.9563 14.0444 31.8342 14.2887C31.6713 14.5329 31.4271 14.6958 31.1421 14.7772C30.8571 14.8586 30.5315 14.8586 30.2465 14.8586V15.3471H34.6023V14.8586C34.3174 14.8586 34.0731 14.8179 33.8289 14.7365C33.5032 14.6551 33.259 14.4922 33.0554 14.248C32.8926 14.0037 32.8112 13.7595 32.7705 13.4745L32.7297 12.3754V2.11679H32.974C32.974 2.11679 38.6325 15.1843 38.6325 15.3471H39.1617L44.4945 2.23892H44.6167V12.7825C44.6167 13.1488 44.576 13.5152 44.4945 13.8816C44.3724 14.2073 44.1282 14.4515 43.8432 14.5736C43.4768 14.6958 43.1104 14.7772 42.7441 14.7772V15.2657H48.8097V14.7772C48.4433 14.7772 48.0362 14.6958 47.6698 14.5736C47.3441 14.4108 47.0999 14.1258 46.9778 13.8002" fill="#503629"/>
<path d="M55.1602 4.11157C51.9035 4.11157 49.8681 6.22842 49.8681 9.97362C49.8681 15.4693 54.1425 15.795 55.0788 15.795C56.9107 15.795 60.3709 14.6551 60.3709 9.85149C60.3302 6.1063 58.132 4.11157 55.1602 4.11157ZM55.1195 15.1029C52.677 15.1029 52.3106 13.8816 52.3106 10.0143C52.3106 7.00189 52.5142 4.7222 55.1195 4.7222C57.9284 4.7222 57.9691 7.0833 57.9691 9.77007C57.9691 13.7188 57.2771 15.1029 55.1195 15.1029Z" fill="#503629"/>
<path d="M68.8383 4.27441C66.8843 4.27441 66.3144 5.41426 65.7444 6.59481H65.5816C65.5816 6.59481 65.2966 4.92575 65.2152 4.39654H61.4293V4.96646H63.4648V12.579C63.5055 13.1082 63.424 13.6374 63.2205 14.1259C63.017 14.4923 62.5285 14.6958 61.7957 14.6958H61.47V15.3879H67.7392V14.6958H67.4542C66.64 14.6958 66.2737 14.533 66.0701 14.1666C65.8666 13.6781 65.7444 13.1082 65.8259 12.579V8.63024C65.8259 7.32756 66.8436 5.78063 68.0241 5.78063C69.2454 5.78063 69.2454 7.69394 70.6702 6.92048C71.4029 6.47268 71.2401 4.27441 68.8383 4.27441Z" fill="#503629"/>
<path d="M93.8741 14.2073C93.1821 14.2073 92.9785 13.841 92.9378 13.2303V7.20544C93.0192 6.39127 92.7343 5.53639 92.1643 4.92576C91.5944 4.35584 90.4546 4.03017 88.8262 4.03017C87.605 3.94875 86.4244 4.23371 85.366 4.88505C84.7554 5.25143 84.389 5.94348 84.389 6.63552C84.3483 6.92048 84.4704 7.20544 84.674 7.40899C84.8775 7.57182 85.1218 7.65324 85.366 7.65324C85.9766 7.65324 86.343 7.32757 86.4651 6.5134C86.4651 6.02489 86.6687 5.5771 86.9536 5.21072C87.3607 4.84434 87.9307 4.6408 88.4599 4.72222C89.0705 4.6408 89.7218 4.88505 90.1289 5.37356C90.4546 5.86206 90.5767 6.39127 90.5767 6.96119V8.8745C88.582 9.03733 83.8191 9.44442 84.0226 13.0268C84.1855 14.533 85.4881 15.6728 86.9944 15.6321C88.4192 15.5914 89.7625 14.9401 90.6581 13.8002C90.8617 14.818 91.7573 15.51 92.775 15.4693C94.2405 15.4693 95.1361 14.7365 95.2175 12.9861H94.8511C94.7697 13.8002 94.2812 14.2073 93.8741 14.2073ZM90.5767 13.0268C90.5767 13.0675 90.5767 13.0675 90.5767 13.1082V13.1489C89.9254 13.8817 89.0298 14.3295 88.0528 14.4516C87.1165 14.4923 86.3023 13.7595 86.2616 12.7825C86.2616 12.7011 86.2616 12.6197 86.2616 12.5383C86.2616 10.5028 89.0705 9.48513 90.6174 9.48513L90.5767 13.0268Z" fill="#503629"/>
<path d="M106.738 14.126C106.453 13.6375 106.331 13.0675 106.331 12.4976V7.53116C106.372 6.87982 106.25 6.26919 105.965 5.69927C105.72 5.25147 105.313 4.84439 104.865 4.60014C104.336 4.35588 103.766 4.23376 103.196 4.23376C101.69 4.19305 100.306 5.00722 99.614 6.35061H99.3698L98.9627 4.35588H95.5839V4.9258H97.2936V12.4976C97.2936 12.9454 97.2529 13.3525 97.1715 13.8003C97.0901 14.126 96.8458 14.4109 96.5202 14.4923C96.2352 14.6145 95.9095 14.6552 95.5839 14.6552V15.3472H100.998V14.6552C100.591 14.6959 100.184 14.4923 99.899 14.2074C99.6547 13.7189 99.5326 13.1897 99.614 12.6604V9.77013C99.4919 8.71171 99.6547 7.65328 100.021 6.63557C100.469 5.8621 101.324 5.3736 102.219 5.41431C102.83 5.33289 103.441 5.65856 103.726 6.18777C104.011 7.00195 104.133 7.89754 104.092 8.75242V12.3348C104.133 12.7826 104.133 13.2304 104.092 13.6782C104.051 14.0038 103.888 14.2888 103.603 14.4516C103.319 14.6145 103.034 14.6959 102.749 14.6959V15.3879H108V14.6959C107.349 14.6145 106.942 14.4516 106.738 14.126Z" fill="#503629"/>
<path d="M82.1907 3.66381C81.8243 3.82664 81.5801 4.15231 81.5394 4.51869C81.458 4.96648 81.2951 5.21073 81.0509 5.29215C80.8066 5.37357 80.5217 5.33286 80.2774 5.25144C79.3004 4.39656 77.9977 3.98947 76.7358 4.07089C74.4968 3.90806 72.5021 5.57711 72.3392 7.81608C72.3392 7.97892 72.3392 8.14175 72.3392 8.30459C72.3392 10.6657 73.2348 11.7241 75.1888 12.1719C75.311 12.1719 75.311 12.3347 75.1888 12.3347C73.5198 12.6197 72.0543 13.1082 72.0543 14.7366C72.0543 15.51 72.5428 16.2021 73.2755 16.4463C74.3339 16.8127 75.4331 16.9755 76.5322 16.9348C77.3871 16.9348 78.2827 16.9755 79.1376 17.0569C79.6261 17.0977 80.1146 17.2605 80.5624 17.5454C80.9287 17.8711 81.1323 18.3189 81.0916 18.8074C81.0916 19.5809 80.6031 20.2729 79.911 20.5579C78.9747 21.0057 77.957 21.2092 76.9393 21.1685C76.003 21.2499 75.026 21.0464 74.2118 20.5579C73.7233 20.1915 73.4791 19.5809 73.6419 19.011C73.8047 18.5632 73.5605 18.034 73.072 17.8711H72.9499C72.5835 17.8304 72.2171 17.9932 72.0136 18.2782C71.8507 18.5632 71.7286 18.9295 71.7693 19.2959C71.81 20.3543 72.5428 21.2092 73.6012 21.4128C74.5782 21.7384 75.5959 21.8606 76.6136 21.8606C77.7942 21.9013 78.9747 21.6977 80.0739 21.2092C81.3765 20.6393 82.2721 19.3773 82.2721 17.9525C82.3128 17.2605 82.1093 16.6091 81.7429 16.0392C80.6438 14.533 79.0969 14.7366 75.5959 14.5737C73.9269 14.5737 73.6012 14.2888 73.6012 13.8003C73.6012 13.0268 74.2118 12.7418 76.6136 12.3755C79.0154 12.0091 81.2544 11.1135 81.2544 8.22317C81.2544 7.53112 81.1323 6.79837 80.8066 6.14703C81.2544 6.26916 81.7429 6.26916 82.1907 6.14703C82.5978 6.02491 82.9642 5.73994 83.1677 5.37357C83.3713 5.08861 83.4527 4.68152 83.3713 4.35585C83.1677 3.74522 82.7606 3.50097 82.1907 3.66381ZM76.7765 11.6834C75.3517 11.6834 74.4968 11.1542 74.4968 8.26388C74.4968 6.22845 75.1888 4.72223 76.7765 4.72223C78.5676 4.72223 79.0561 6.10632 79.0561 8.22317C79.0154 11.2356 78.0791 11.6834 76.7765 11.6834Z" fill="#503629"/>
</g>
</svg>
