<svg width="112" height="24" viewBox="0 0 112 24" fill="none" xmlns="http://www.w3.org/2000/svg">
<g style="mix-blend-mode:luminosity">
<path d="M0 0H11.3777C11.3769 3.80571 11.3777 7.61143 11.3769 11.4171C7.58511 11.4171 3.79256 11.4171 0 11.4171V0Z" fill="#F25022"/>
<path d="M11.3777 0H12.5394C12.5394 3.80571 12.5386 7.61143 12.5402 11.4171C16.3319 11.4171 20.1245 11.4163 23.9162 11.4171C23.9178 7.61143 23.917 3.80571 23.917 0H112V8.8792C111.188 8.88214 110.376 8.87304 109.565 8.88482C109.547 7.85411 109.563 6.82366 109.556 5.79348C108.745 6.03911 107.938 6.30027 107.122 6.53357C107.102 7.31518 107.12 8.09759 107.111 8.8792C105.911 8.87866 104.711 8.8808 103.512 8.87786C103.527 8.26205 103.469 7.6417 103.557 7.02937C103.63 6.54643 103.909 6.06375 104.378 5.87732C104.969 5.63384 105.63 5.79562 106.192 6.04393C106.188 5.33839 106.197 4.63259 106.187 3.92786C105.005 3.60134 103.65 3.66509 102.601 4.35027C101.924 4.785 101.434 5.48036 101.213 6.25098C100.952 7.10464 101.085 8.00652 101.043 8.88268C100.474 8.87866 99.9056 8.87304 99.3376 8.88616C99.3437 9.54589 99.3411 10.2054 99.3389 10.8646C99.9096 10.8761 100.481 10.8624 101.052 10.8734C101.047 13.6492 101.05 16.4242 101.05 19.2C101.87 19.2 102.691 19.2 103.511 19.2C103.511 16.4237 103.51 13.6471 103.512 10.8707C104.711 10.8686 105.912 10.8694 107.113 10.8699C107.116 12.6396 107.109 14.4088 107.115 16.178C107.126 17.0022 107.267 17.8835 107.811 18.5341C108.281 19.1103 109.029 19.3736 109.75 19.4269C110.511 19.4812 111.297 19.3878 112 19.0813V24H23.917C23.917 20.1943 23.917 16.3886 23.917 12.5829C20.1245 12.5829 16.3319 12.5821 12.5402 12.5837C12.5386 16.3886 12.5402 20.1943 12.5394 24H11.3777C11.3777 20.1943 11.3785 16.3894 11.3777 12.5837C7.58511 12.5815 3.79256 12.5837 0 12.5821V11.4171C3.79256 11.4171 7.58511 11.4171 11.3769 11.4171C11.3777 7.61143 11.3769 3.80571 11.3777 0Z" fill="#FEFEFE"/>
<path d="M12.5394 0H23.9171C23.9171 3.80571 23.9179 7.61143 23.9163 11.4171C20.1245 11.4163 16.3319 11.4171 12.5402 11.4171C12.5386 7.61143 12.5394 3.80571 12.5394 0Z" fill="#80BA01"/>
<path d="M102.601 4.35022C103.65 3.66504 105.005 3.60129 106.187 3.92781C106.197 4.63254 106.188 5.33834 106.192 6.04388C105.63 5.79557 104.969 5.63379 104.378 5.87727C103.909 6.0637 103.63 6.54638 103.557 7.02932C103.469 7.64165 103.527 8.262 103.512 8.87781C104.711 8.88075 105.911 8.87861 107.111 8.87915C107.12 8.09754 107.102 7.31513 107.122 6.53352C107.938 6.30022 108.745 6.03906 109.556 5.79343C109.563 6.82361 109.547 7.85406 109.565 8.88477C110.376 8.87299 111.188 8.88209 112 8.87915V10.8843C111.185 10.8506 110.37 10.8755 109.556 10.8725C109.559 12.0254 109.556 13.178 109.557 14.3314C109.57 14.9697 109.523 15.6117 109.597 16.2479C109.642 16.6232 109.778 17.0386 110.129 17.2325C110.716 17.5625 111.461 17.4184 112 17.0563V19.0813C111.297 19.3877 110.511 19.4812 109.75 19.4268C109.029 19.3735 108.281 19.1102 107.811 18.5341C107.267 17.8834 107.126 17.0022 107.115 16.178C107.109 14.4088 107.116 12.6396 107.113 10.8699C105.912 10.8693 104.711 10.8685 103.512 10.8707C103.51 13.647 103.511 16.4236 103.511 19.2C102.691 19.2 101.87 19.2 101.05 19.2C101.05 16.4241 101.047 13.6491 101.052 10.8733C100.481 10.8624 99.9096 10.876 99.3389 10.8645C99.3411 10.2053 99.3437 9.54584 99.3376 8.88611C99.9056 8.87299 100.474 8.87861 101.043 8.88263C101.085 8.00647 100.952 7.10459 101.213 6.25093C101.434 5.48031 101.924 4.78495 102.601 4.35022Z" fill="#777777"/>
<path d="M49.9161 4.4941C50.4123 4.41883 50.9494 4.58892 51.278 4.97838C51.6634 5.40481 51.7344 6.08356 51.4488 6.58204C51.1333 7.14454 50.4268 7.4057 49.8109 7.2707C49.1719 7.15552 48.6396 6.55954 48.6685 5.89499C48.6501 5.19561 49.2328 4.57231 49.9161 4.4941Z" fill="#777777"/>
<path d="M31.0579 4.79995C32.2511 4.79995 33.4435 4.79995 34.6367 4.79995C35.7506 7.63816 36.8725 10.4734 37.9877 13.3116C38.2726 14.0215 38.5392 14.7393 38.8379 15.4435C40.2708 11.8971 41.7242 8.3595 43.1462 4.80825C44.2937 4.78977 45.4415 4.80397 46.5896 4.80129C46.5869 9.60075 46.5883 14.4 46.5891 19.1992C45.7608 19.1973 44.9333 19.2061 44.1058 19.1943C44.1146 15.6527 44.105 12.1111 44.1098 8.5687C44.1111 8.40959 44.1058 8.25049 44.0949 8.09138C44.0463 8.16531 44.0033 8.24218 43.9657 8.32174C42.5435 11.9472 41.0943 15.5622 39.6803 19.1911C39.0912 19.2123 38.5016 19.1925 37.9119 19.2021C36.4446 15.5766 34.996 11.9432 33.5364 8.31504C33.4982 8.2395 33.4571 8.16611 33.4128 8.0954C33.3826 9.64736 33.408 11.2004 33.3997 12.7521C33.4005 14.9011 33.3984 17.0501 33.4005 19.1992C32.6195 19.2013 31.8384 19.1992 31.0579 19.2C31.0571 14.4 31.0566 9.59995 31.0579 4.79995Z" fill="#777777"/>
<path d="M56.6882 8.8698C57.8757 8.53016 59.1565 8.54409 60.3432 8.88079C60.588 8.94936 60.8251 9.04445 61.045 9.17409C61.0314 9.96079 61.045 10.7478 61.0375 11.535C60.2442 10.9269 59.2376 10.5415 58.2291 10.669C57.4281 10.7416 56.6641 11.1586 56.1853 11.8079C55.5694 12.6131 55.4274 13.6821 55.5334 14.6668C55.6124 15.4374 55.9303 16.2075 56.5275 16.7183C57.1481 17.2717 58.018 17.4678 58.8297 17.4061C59.6319 17.3135 60.3892 16.9728 61.0375 16.4968C61.0445 17.2422 61.0343 17.9877 61.0431 18.7331C60.0371 19.3336 58.8311 19.4887 57.6795 19.4317C56.5016 19.3693 55.3268 18.9217 54.4742 18.0905C53.5474 17.1943 53.0445 15.9161 52.985 14.636C52.9249 13.305 53.1948 11.9164 53.9582 10.8048C54.5978 9.85632 55.5983 9.18507 56.6882 8.8698Z" fill="#777777"/>
<path d="M73.3596 8.69219C74.5405 8.54112 75.7863 8.60835 76.8823 9.10897C77.8336 9.53969 78.6043 10.3358 79.0314 11.2888C79.4873 12.3037 79.5978 13.4434 79.5207 14.5441C79.4448 15.6184 79.1088 16.695 78.439 17.5486C77.7536 18.4553 76.7203 19.0698 75.6141 19.298C74.6684 19.4954 73.6789 19.4949 72.7331 19.2953C71.6013 19.0526 70.5539 18.3934 69.8903 17.435C69.1114 16.324 68.8898 14.9116 68.9889 13.5806C69.0559 12.451 69.4058 11.3129 70.1247 10.4268C70.9118 9.43469 72.1194 8.84915 73.3596 8.69219Z" fill="#777777"/>
<path d="M83.5676 8.71259C84.7053 8.5117 85.8963 8.65929 86.9734 9.06857C86.9747 9.82554 86.9734 10.582 86.9739 11.3384C86.2217 10.8193 85.3024 10.5402 84.3895 10.5723C83.9296 10.5903 83.424 10.7855 83.2142 11.2246C83.0473 11.6585 83.1629 12.2277 83.5708 12.4875C84.2686 12.956 85.1008 13.1547 85.824 13.5745C86.3931 13.8954 86.9453 14.3151 87.2336 14.9196C87.7755 16.0527 87.5459 17.5495 86.5932 18.3943C85.6838 19.2474 84.3737 19.4831 83.1691 19.4379C82.3136 19.3824 81.4538 19.2131 80.6674 18.862C80.6709 18.0659 80.6626 17.2704 80.6714 16.4751C81.3329 16.957 82.0963 17.302 82.904 17.4418C83.4664 17.5337 84.078 17.5379 84.6019 17.2856C85.1035 17.0352 85.1937 16.32 84.8958 15.8826C84.6172 15.5451 84.2077 15.3592 83.8217 15.1768C83.0967 14.8497 82.3346 14.5762 81.6977 14.0861C81.2504 13.7354 80.9114 13.2418 80.7787 12.6849C80.582 11.8642 80.6434 10.9393 81.119 10.222C81.6622 9.38598 82.6061 8.88482 83.5676 8.71259Z" fill="#777777"/>
<path d="M92.9724 8.68874C94.2002 8.53579 95.5042 8.61882 96.6248 9.18641C97.602 9.67686 98.3598 10.5627 98.7383 11.5872C99.0344 12.371 99.1382 13.2171 99.1211 14.0518C99.123 15.2984 98.7875 16.5779 98.0077 17.5666C97.278 18.5239 96.1614 19.1459 94.9826 19.3411C93.83 19.5284 92.6123 19.4799 91.5168 19.047C90.4072 18.6088 89.4846 17.7147 89.0173 16.6136C88.5298 15.491 88.4786 14.2278 88.6305 13.0286C88.7896 11.8294 89.3309 10.6567 90.2534 9.85927C91.0091 9.19338 91.9821 8.81624 92.9724 8.68874Z" fill="#777777"/>
<path d="M66.5475 9.03778C67.2266 8.62822 68.0898 8.59394 68.8311 8.84438C68.8276 9.66778 68.8311 10.4914 68.829 11.3151C68.3439 10.9996 67.7385 10.8646 67.1657 10.9227C66.4674 11.0022 65.9138 11.5406 65.6269 12.1578C65.3154 12.8111 65.2566 13.5504 65.2764 14.265C65.2764 15.9099 65.2772 17.5551 65.2764 19.2C64.4673 19.2 63.6588 19.2 62.8505 19.2C62.8484 15.7618 62.8532 12.323 62.8484 8.88483C63.6583 8.87465 64.4681 8.87867 65.2777 8.88269C65.2742 9.47304 65.2777 10.0637 65.2756 10.6546C65.5388 10.0122 65.9304 9.38813 66.5475 9.03778Z" fill="#777777"/>
<path d="M48.8919 8.8826C49.7079 8.87911 50.5245 8.87108 51.3402 8.88688C51.3309 12.3243 51.3397 15.7625 51.3362 19.1999C50.5215 19.1999 49.7071 19.1999 48.8932 19.1999C48.8911 15.7612 48.894 12.3222 48.8919 8.8826Z" fill="#777777"/>
<path d="M74.0937 10.6519C74.8331 10.6031 75.6202 10.8131 76.1517 11.3526C76.7203 11.9135 76.9405 12.7275 77.0011 13.5037C77.0448 14.3534 77.0101 15.2386 76.6549 16.0259C76.4197 16.5565 75.9891 17.0049 75.4459 17.2176C74.8104 17.4624 74.0963 17.4768 73.4402 17.306C72.7726 17.1297 72.2062 16.6457 71.8979 16.0293C71.5018 15.2352 71.4423 14.3169 71.5242 13.4461C71.5987 12.6541 71.8733 11.8395 72.4747 11.2931C72.9106 10.8844 73.5054 10.6848 74.0937 10.6519Z" fill="#FEFEFE"/>
<path d="M93.6364 10.654C94.3315 10.6052 95.0736 10.7665 95.608 11.2374C96.1005 11.6474 96.3733 12.2619 96.4982 12.8804C96.6391 13.606 96.6378 14.3568 96.5187 15.0857C96.4245 15.6289 96.2371 16.1705 95.8826 16.6004C95.5252 17.0324 94.9935 17.2957 94.445 17.3766C93.8558 17.465 93.2352 17.4227 92.6846 17.1846C92.0901 16.9323 91.6294 16.4158 91.387 15.822C91.095 15.1146 91.0371 14.3306 91.095 13.5736C91.151 12.8408 91.3582 12.0883 91.8405 11.5186C92.2807 10.9864 92.9558 10.6923 93.6364 10.654Z" fill="#FEFEFE"/>
<path d="M109.556 10.8726C110.37 10.8755 111.185 10.8506 112 10.8843V17.0563C111.461 17.4185 110.716 17.5626 110.129 17.2326C109.778 17.0386 109.642 16.6232 109.597 16.2479C109.523 15.6118 109.57 14.9697 109.557 14.3314C109.556 13.178 109.559 12.0254 109.556 10.8726Z" fill="#FEFEFE"/>
<path d="M0 12.582C3.79256 12.5836 7.58511 12.5815 11.3777 12.5836C11.3785 16.3894 11.3777 20.1943 11.3777 24H0V12.582Z" fill="#02A4EF"/>
<path d="M12.5402 12.5836C16.3319 12.582 20.1245 12.5828 23.917 12.5828C23.917 16.3886 23.917 20.1943 23.917 24H12.5394C12.5402 20.1943 12.5386 16.3886 12.5402 12.5836Z" fill="#FFB902"/>
</g>
</svg>
