<svg width="40" height="39" viewBox="0 0 40 39" fill="none" xmlns="http://www.w3.org/2000/svg">
<path d="M24.2332 23.9584C26.6998 21.4918 26.6998 17.4926 24.2332 15.026C21.7665 12.5593 17.7673 12.5593 15.3007 15.026C12.8341 17.4926 12.8341 21.4918 15.3007 23.9584C17.7673 26.4251 21.7665 26.4251 24.2332 23.9584Z" fill="#00A582"/>
<path d="M11.4002 3.29143C10.5389 3.29143 9.80064 3.98868 9.80064 4.89101V7.22885L2.99219 0.461416C2.37697 -0.153805 1.3516 -0.153805 0.736379 0.461416C0.121158 1.07664 0.121158 2.10201 0.736379 2.71723L7.50381 9.48466H5.16597C4.30466 9.48466 3.5664 10.1819 3.5664 11.0842C3.5664 11.5354 3.73045 11.9045 4.01756 12.1916C4.30466 12.4787 4.71481 12.6428 5.12496 12.6428H11.3182C12.1795 12.6428 12.9178 11.9455 12.9178 11.0432V4.89101C12.9588 4.0297 12.2615 3.29143 11.4002 3.29143Z" fill="#00A582"/>
<path d="M38.7981 36.2674L31.9896 29.4589H34.3275C35.1888 29.4589 35.927 28.7617 35.927 27.8593C35.927 26.998 35.2298 26.2598 34.3275 26.2598H28.1342C27.2729 26.2598 26.5347 26.957 26.5347 27.8593V34.0526C26.5347 34.5037 26.6987 34.8729 26.9858 35.16C27.2729 35.4471 27.6831 35.6111 28.0932 35.6111C28.9545 35.6111 29.6928 34.9139 29.6928 34.0116V31.6737L36.4602 38.4411C37.0755 39.0564 38.1008 39.0564 38.716 38.4411C39.3313 37.8259 39.4133 36.8826 38.7981 36.2674Z" fill="#00A582"/>
</svg>
