<?xml version="1.0" standalone="no"?>
<!DOCTYPE svg PUBLIC "-//W3C//DTD SVG 20010904//EN"
 "http://www.w3.org/TR/2001/REC-SVG-20010904/DTD/svg10.dtd">
<svg version="1.0" xmlns="http://www.w3.org/2000/svg"
 width="700.000000pt" height="700.000000pt" viewBox="0 0 700.000000 700.000000"
 preserveAspectRatio="xMidYMid meet">
<metadata>
Created by potrace 1.11, written by Peter Selinger 2001-2013
</metadata>
<g transform="translate(0.000000,700.000000) scale(0.100000,-0.100000)"
fill="#000000" stroke="none">
<path d="M4117 6163 c-1 0 -45 -4 -96 -8 -292 -20 -620 -113 -871 -249 -30
-16 -68 -36 -85 -45 -99 -50 -141 -82 -930 -696 -346 -270 -653 -509 -681
-531 -28 -21 -163 -127 -300 -234 -240 -187 -475 -371 -767 -598 -76 -59 -194
-151 -263 -205 l-124 -99 42 -31 c24 -16 45 -33 48 -37 3 -3 34 -28 70 -55 36
-27 121 -93 190 -147 69 -54 138 -108 154 -121 57 -43 641 -498 656 -510 8 -7
87 -68 175 -137 88 -68 189 -147 225 -175 36 -28 97 -76 135 -105 39 -30 75
-59 82 -65 6 -5 44 -35 83 -65 60 -46 246 -191 300 -233 8 -7 44 -35 80 -62
36 -27 72 -55 80 -62 8 -7 53 -42 100 -78 47 -37 92 -72 100 -78 216 -174 450
-346 540 -395 150 -83 327 -160 465 -203 77 -23 257 -66 315 -74 25 -3 52 -8
60 -10 83 -20 518 -21 590 -1 8 3 33 7 55 10 218 31 461 108 675 215 175 87
252 140 585 399 138 108 279 218 315 246 36 27 115 89 175 136 61 47 139 108
175 136 36 28 170 132 297 232 l233 181 -98 76 c-53 42 -110 87 -127 99 -16
13 -77 61 -135 106 -58 45 -120 93 -139 108 -19 15 -132 102 -250 195 -119 92
-229 178 -246 191 -16 13 -48 38 -70 55 -22 17 -44 34 -50 39 -5 4 -30 23 -55
42 -25 19 -59 46 -76 60 -66 54 -108 86 -133 101 l-26 17 -390 -304 c-214
-168 -397 -310 -405 -317 -8 -7 -76 -59 -150 -117 -74 -57 -137 -107 -140
-110 -3 -3 -23 -19 -45 -36 -22 -16 -91 -69 -153 -117 l-113 -88 -47 39 c-242
203 -432 547 -468 847 -3 22 -7 51 -10 65 -5 32 -6 247 0 280 3 14 7 45 10 70
8 63 16 103 22 120 3 8 12 39 20 69 36 135 159 368 249 471 69 80 133 145 177
182 l48 40 112 -88 c62 -48 316 -246 563 -438 248 -193 452 -352 455 -356 3
-3 34 -27 70 -54 36 -28 69 -54 75 -58 5 -5 36 -29 69 -53 l59 -45 41 33 c22
19 237 186 476 373 239 186 440 342 445 346 21 17 183 144 215 168 135 102
220 174 213 180 -4 4 -46 36 -93 71 -47 35 -92 69 -100 76 -24 20 -134 106
-166 130 -16 12 -99 77 -184 143 -85 67 -197 154 -249 193 -51 40 -99 77 -105
82 -6 6 -135 107 -286 224 -310 242 -423 318 -589 401 -103 52 -148 71 -294
126 -115 43 -392 99 -544 110 -82 6 -263 11 -266 7z"/>
</g>
</svg>
