<svg width="2311" height="705" viewBox="0 0 2311 705" fill="none" xmlns="http://www.w3.org/2000/svg">
<path d="M1566.67 704.228C1294.4 704.228 1135.93 704.228 849.195 704.228L1135.93 479.299C1388.73 281.756 1743.28 281.756 1996.07 479.299L2311 704.228C2021.44 704.228 1838.94 704.228 1566.67 704.228Z" fill="url(#paint0_linear)"/>
<path d="M707.173 704.228C434.901 704.228 286.735 704.228 0 704.228L286.735 479.299C539.536 281.756 883.786 281.756 1136.58 479.299L1451.5 704.228C1161.94 704.228 979.444 704.228 707.173 704.228Z" fill="url(#paint1_linear)"/>
<path d="M1142.07 483.834C895.299 291.269 551.74 286.221 300.231 469.371L711.334 148.158C964.134 -49.3859 1318.69 -49.3859 1571.48 148.158L1977.48 465.384C1726.84 286.336 1386.72 292.79 1142.07 483.834Z" fill="url(#paint2_linear)"/>
<defs>
<linearGradient id="paint0_linear" x1="1580.35" y1="343.5" x2="1627.5" y2="617.5" gradientUnits="userSpaceOnUse">
<stop stop-color="#F7FBFF"/>
<stop offset="1" stop-color="white"/>
</linearGradient>
<linearGradient id="paint1_linear" x1="726" y1="343.5" x2="726.001" y2="608" gradientUnits="userSpaceOnUse">
<stop stop-color="#F7FBFF"/>
<stop offset="1" stop-color="white"/>
</linearGradient>
<linearGradient id="paint2_linear" x1="1139" y1="-1.38217e-08" x2="1141.39" y2="483.988" gradientUnits="userSpaceOnUse">
<stop stop-color="#F7FBFF"/>
<stop offset="1" stop-color="white"/>
</linearGradient>
</defs>
</svg>
